<svg width="100" height="100" viewBox="0 0 100 100" fill="none" xmlns="http://www.w3.org/2000/svg">
<mask id="path-1-inside-1" fill="white">
<path d="M62.2449 38.191L50 0V76.3819L81.6327 100L69.3878 61.809L100 38.191H62.2449Z"/>
</mask>
<path d="M50 0L145.225 -30.5314L-50 0H50ZM62.2449 38.191L-32.9803 68.7223L-10.707 138.191H62.2449V38.191ZM100 38.191L161.085 117.366L393.32 -61.809L100 -61.809V38.191ZM69.3878 61.809L8.30266 -17.3655L-47.2658 25.5069L-25.8374 92.3404L69.3878 61.809ZM81.6327 100L21.8053 180.129L272.305 367.161L176.858 69.4686L81.6327 100ZM50 76.3819H-50V126.517L-9.82736 156.511L50 76.3819ZM-45.2252 30.5314L-32.9803 68.7223L157.47 7.65958L145.225 -30.5314L-45.2252 30.5314ZM62.2449 138.191H100V-61.809H62.2449V138.191ZM38.9149 -40.9836L8.30266 -17.3655L130.473 140.984L161.085 117.366L38.9149 -40.9836ZM-25.8374 92.3404L-13.5925 130.531L176.858 69.4686L164.613 31.2777L-25.8374 92.3404ZM141.46 19.8708L109.827 -3.74727L-9.82736 156.511L21.8053 180.129L141.46 19.8708ZM150 76.3819V0H-50V76.3819H150Z" fill="#E6E7E8" mask="url(#path-1-inside-1)"/>
<mask id="path-3-inside-2" fill="white">
<path d="M38.0435 38.2857L50 0V76.5714L19.0217 100L30.4348 61.7143L0 38.2857H38.0435Z"/>
</mask>
<path d="M50 0H150L-45.4535 -29.8099L50 0ZM38.0435 38.2857V138.286H111.577L133.497 68.0956L38.0435 38.2857ZM0 38.2857V-61.7143H-293.841L-60.9992 117.526L0 38.2857ZM30.4348 61.7143L126.267 90.2821L145.905 24.4053L91.434 -17.5265L30.4348 61.7143ZM19.0217 100L-76.8108 71.4321L-163.955 363.762L79.3424 179.759L19.0217 100ZM50 76.5714L110.321 156.33L150 126.321V76.5714H50ZM-45.4535 -29.8099L-57.41 8.47585L133.497 68.0956L145.454 29.8099L-45.4535 -29.8099ZM38.0435 -61.7143H0V138.286H38.0435V-61.7143ZM-60.9992 117.526L-30.5644 140.955L91.434 -17.5265L60.9992 -40.955L-60.9992 117.526ZM-65.3978 33.1464L-76.8108 71.4321L114.854 128.568L126.267 90.2821L-65.3978 33.1464ZM79.3424 179.759L110.321 156.33L-10.3206 -3.18709L-41.2989 20.2415L79.3424 179.759ZM150 76.5714V0H-50V76.5714H150Z" fill="black" mask="url(#path-3-inside-2)"/>
</svg>
